<?xml version="1.0" encoding="UTF-8"?>
<!-- Generated by Pixelmator Pro 3.1.1 -->
<svg width="98" height="96" viewBox="0 0 98 96" xmlns="http://www.w3.org/2000/svg" xmlns:xlink="http://www.w3.org/1999/xlink">
    <path id="Path" fill="#ffffff" fill-rule="evenodd" stroke="none" d="M 48.854 0 C 21.839001 0 0 22 0 49.216999 C 0 70.973 13.993 89.389 33.404999 95.906998 C 35.832001 96.397003 36.721001 94.848 36.721001 93.544998 C 36.721001 92.403999 36.640999 88.492996 36.640999 84.417999 C 23.051001 87.351997 20.221001 78.551003 20.221001 78.551003 C 18.037001 72.847 14.801 71.380997 14.801 71.380997 C 10.353 68.365997 15.125 68.365997 15.125 68.365997 C 20.059 68.692001 22.648001 73.417999 22.648001 73.417999 C 27.014999 80.914001 34.051998 78.795998 36.882999 77.491997 C 37.286999 74.314003 38.582001 72.113998 39.957001 70.891998 C 29.118 69.750999 17.714001 65.514 17.714001 46.609001 C 17.714001 41.230999 19.653999 36.831001 22.728001 33.409 C 22.243 32.187 20.544001 27.134003 23.214001 20.371002 C 23.214001 20.371002 27.339001 19.067001 36.639999 25.423004 C 40.622089 24.345665 44.728752 23.797615 48.854 23.792999 C 52.979 23.792999 57.183998 24.363998 61.067001 25.423004 C 70.369003 19.067001 74.494003 20.371002 74.494003 20.371002 C 77.164001 27.134003 75.463997 32.187 74.978996 33.409 C 78.134003 36.831001 79.994003 41.230999 79.994003 46.609001 C 79.994003 65.514 68.589996 69.668999 57.669998 70.891998 C 59.450001 72.440002 60.986 75.373001 60.986 80.017998 C 60.986 86.617996 60.905998 91.915001 60.905998 93.543999 C 60.905998 94.848 61.796001 96.397003 64.222 95.907997 C 83.634003 89.388 97.626999 70.973 97.626999 49.216999 C 97.707001 22 75.788002 0 48.854 0 Z"/>
</svg>
